<?xml version="1.0" standalone="no"?>
<!DOCTYPE svg PUBLIC "-//W3C//DTD SVG 20010904//EN"
 "http://www.w3.org/TR/2001/REC-SVG-20010904/DTD/svg10.dtd">
<svg version="1.0" xmlns="http://www.w3.org/2000/svg"
 width="146.000000pt" height="152.000000pt" viewBox="0 0 146.000000 152.000000"
 preserveAspectRatio="xMidYMid meet">

<g transform="translate(0.000000,152.000000) scale(0.100000,-0.100000)"
fill="#ffffff" stroke="none">
<path d="M53 1460 c-53 -21 -49 -103 5 -117 74 -18 115 84 47 115 -14 7 -27
12 -28 11 -1 0 -12 -4 -24 -9z"/>
<path d="M1352 1458 c-42 -21 -43 -83 -1 -107 36 -20 74 -8 89 29 10 25 10 34
-4 55 -9 14 -20 25 -25 25 -5 0 -15 2 -23 4 -7 3 -23 0 -36 -6z"/>
<path d="M224 1323 c-63 -44 -13 -142 57 -113 58 24 45 112 -16 118 -17 1 -35
-1 -41 -5z"/>
<path d="M656 1274 c-14 -13 -16 -52 -16 -270 l0 -254 -160 0 c-147 0 -162 -2
-180 -20 -24 -24 -25 -29 -3 -60 24 -35 184 -219 222 -254 l31 -30 0 -178 0
-178 180 0 180 0 0 178 0 178 31 30 c38 35 198 219 222 254 22 31 21 36 -3 60
-18 18 -33 20 -180 20 l-160 0 0 254 c0 296 3 286 -90 286 -40 0 -64 -5 -74
-16z"/>
<path d="M1172 1278 c-42 -21 -43 -83 -1 -107 36 -20 74 -8 89 29 10 25 10 34
-4 55 -9 14 -20 25 -25 25 -5 0 -15 2 -23 4 -7 3 -23 0 -36 -6z"/>
<path d="M30 1154 c-20 -23 -16 -75 5 -90 26 -20 69 -17 88 4 22 24 21 65 -1
85 -23 21 -75 22 -92 1z"/>
<path d="M390 1154 c-20 -23 -16 -75 5 -90 26 -20 69 -17 88 4 22 24 21 65 -1
85 -23 21 -75 22 -92 1z"/>
<path d="M977 1152 c-52 -57 25 -134 88 -88 21 15 25 67 5 90 -17 22 -73 20
-93 -2z"/>
<path d="M1337 1152 c-52 -57 25 -134 88 -88 21 15 25 67 5 90 -17 22 -73 20
-93 -2z"/>
<path d="M224 1053 c-63 -44 -13 -142 57 -113 58 24 45 112 -16 118 -17 1 -35
-1 -41 -5z"/>
<path d="M1172 1008 c-42 -21 -43 -83 -1 -107 36 -20 74 -8 89 29 10 25 10 34
-4 55 -9 14 -20 25 -25 25 -5 0 -15 2 -23 4 -7 3 -23 0 -36 -6z"/>
<path d="M44 873 c-63 -44 -13 -142 57 -113 58 24 45 112 -16 118 -17 1 -35
-1 -41 -5z"/>
<path d="M1336 858 c-30 -42 -15 -88 34 -103 45 -14 91 45 69 88 -16 29 -28
37 -61 37 -17 0 -33 -9 -42 -22z"/>
</g>
</svg>
